<?xml version="1.0" encoding="UTF-8" standalone="no"?>
<svg
   xmlns:dc="http://purl.org/dc/elements/1.1/"
   xmlns:cc="http://creativecommons.org/ns#"
   xmlns:rdf="http://www.w3.org/1999/02/22-rdf-syntax-ns#"
   xmlns:svg="http://www.w3.org/2000/svg"
   xmlns="http://www.w3.org/2000/svg"
   xmlns:sodipodi="http://sodipodi.sourceforge.net/DTD/sodipodi-0.dtd"
   xmlns:inkscape="http://www.inkscape.org/namespaces/inkscape"
   id="Layer_1"
   xml:space="preserve"
   viewBox="0 0 238 283.167"
   version="1.0"
   inkscape:version="0.48.4 r9939"
   width="100%"
   height="100%"
   sodipodi:docname="Horse.svg"><defs
   id="defs3053">
	

		
		
		
	</defs><sodipodi:namedview
   pagecolor="#ffffff"
   bordercolor="#666666"
   borderopacity="1"
   objecttolerance="10"
   gridtolerance="10"
   guidetolerance="10"
   inkscape:pageopacity="0"
   inkscape:pageshadow="2"
   inkscape:window-width="1366"
   inkscape:window-height="706"
   id="namedview3051"
   showgrid="false"
   inkscape:zoom="1.6668609"
   inkscape:cx="143.18681"
   inkscape:cy="156.73482"
   inkscape:window-x="-8"
   inkscape:window-y="-8"
   inkscape:window-maximized="1"
   inkscape:current-layer="g236" />
<g
   id="g236"
   transform="matrix(.93696 0 0 1 7.5841 0)">
	<path
   id="path2383_2_"
   stroke-linejoin="round"
   d="m229.84 161.2c0.018 60.508-49.029 109.57-109.54 109.57-60.508 0-109.56-49.062-109.54-109.57-0.018-60.508 49.029-109.57 109.54-109.57 60.508 0 109.56 49.062 109.54 109.57z"
   stroke="#010101"
   stroke-linecap="round"
   stroke-width="3.2874"
   fill="#8b4513"
   style="fill:#9f9f9f;fill-opacity:1" />
	<path
   id="path3221"
   d="m 225.81005,138.74328 c 0,60.464 -51.65151,100.32743 -112.11351,100.32743 -47.262001,0 -86.573299,-32.86345 -101.921299,-74.83245 2.653,59.27759 49.655298,104.96388 108.421299,104.96388 60.463,0 110.37941,-49.44195 107.88925,-109.90495 -0.19179,-10.15369 -0.23537,-9.67479 -2.27574,-20.55391 z"
   style="fill:#5d5d5d;fill-opacity:1"
   inkscape:connector-curvature="0"
   sodipodi:nodetypes="cscscc" />
</g>
<g
   id="g250"
   stroke-linejoin="round"
   stroke="#010101"
   stroke-width="4">
	<g
   id="g252">
		<path
   id="path3329"
   d="m112.81 271.78c0 9.09-14.667 9.38-32.736 9.38-18.07 0-32.736 0.69-32.736-9.38 0-17.72 14.666-32.1 32.736-32.1 18.069 0 32.736 14.38 32.736 32.1z"
   stroke-linecap="round"
   fill="#343434" />
		<path
   id="path3331"
   d="m67.483 280.56c0-16.37 9.442-26.44 9.442-26.44s-3.777 13.85-3.147 26.44h-6.295z"
   fill-opacity=".3137"
   fill="#010101" />
	</g>
	<g
   id="g256">
		<path
   id="path3172"
   d="m127.81 271.78c0 9.09 14.66 9.38 32.73 9.38s32.74 0.69 32.74-9.38c0-17.72-14.67-32.1-32.74-32.1s-32.73 14.38-32.73 32.1z"
   stroke-linecap="round"
   fill="#343434" />
		<path
   id="path3174"
   d="m173.13 280.56c0-16.37-9.44-26.44-9.44-26.44s3.78 13.85 3.15 26.44h6.29z"
   fill-opacity=".3137"
   fill="#010101" />
	</g>
</g>
<path
   style="fill:#424242;stroke:#010101;stroke-width:4;stroke-linecap:round;stroke-linejoin:round;fill-opacity:1"
   inkscape:connector-curvature="0"
   d="m 112.94692,49.097 c 0.729,0.092 1.46,0.22 2.203,0.33 19.911,2.985 34.102,11.633 43.385,23.958 l 12.053,-16.931 c -0.082,-0.002 -0.163,-0.014 -0.247,-0.015 -8.23,-19.026 -24.54,-32.751 -50.74,-36.681 -0.74,-0.112 -1.47,-0.239 -2.2,-0.331 -10.56,-1.321 -20.018,-0.606 -28.411,1.799 l -4.448,29.667 c 8.391,-2.404 17.849,-3.119 28.407,-1.796 z"
   id="path262" />
<g
   id="g280">
		<path
   id="path3236"
   fill-opacity=".3137"
   fill="#010101"
   d="m204.72 125.92c0 45.175-55.121 81.838-81.838 81.838-25.719 0-81.838-36.663-81.838-81.838 0-45.174 24.625-81.838 81.838-81.838 57.223 0 81.838 36.665 81.838 81.838z"
   style="fill:#5a5a5a;fill-opacity:1" />
		<path
   id="path3231"
   fill-opacity=".3137"
   fill="#010101"
   d="m198.64 85.911-1.875 2.656c0.248 3.076 0.344 6.203 0.344 9.375 0 45.175-55.127 81.844-81.844 81.844-20.707 0-61.098-23.756-76.063-56.594 7.615 40.246 57.172 71.375 80.875 71.375 26.717 0 81.844-36.669 81.844-81.844 0-9.391-1.076-18.41-3.281-26.812z" />
		<path
   id="path284"
   stroke-linejoin="round"
   d="m235.03 4.202c-5.021-6.518-64.881 6.3595-73.391 39.345-0.078 0.154-0.215 0.618-0.369 1.315-0.047 0.214-0.096 0.447-0.146 0.705-1.925-1.174-3.908-2.261-5.935-3.272-9.979-3.714-21.665-5.762-35.173-5.762-0.895 0-1.779-0.018-2.656 0-12.873 0.261-24.037 2.432-33.6 6.159-2.307 1.185-4.552 2.471-6.723 3.866-0.045-0.282-0.091-0.543-0.136-0.794-0.216-1.183-0.433-2.007-0.537-2.216-6.646-25.772-44.628-41.52-63.328-41.525-5.237-0.001-8.962 0.753-10.06 2.179-4.002 5.193 4.251 46.94 26.575 61.389 4.198 2.717 8.894 4.473 14.101 4.833 2.119 0.146 4.11 0.156 5.98 0.119-5.838 11.05-9.148 23.634-9.148 36.993 0 13.517-2.5848 20.609 9.349 40.84s51.79 45.975 70.186 45.975c18.565 0 56.478-23.745 68.815-43.672s10.433-28.833 10.433-43.143c0-13.346-3.322-25.91-9.148-36.953 1.345-0.012 2.771-0.057 4.237-0.158 5.595-0.388 10.6-2.384 15.031-5.457 21.621-14.989 29.589-55.646 25.644-60.766z"
   stroke="#010101"
   stroke-linecap="round"
   stroke-width="4"
   fill="#8b4513"
   style="fill:#9b9b9b;fill-opacity:1" />
	</g><g
   id="g286">
		
	</g><path
   inkscape:connector-curvature="0"
   style="fill:#3d3d3d;fill-opacity:1;stroke:#010101;stroke-width:4.99910021;stroke-linecap:round;stroke-linejoin:round"
   d="m 121.0023,152.363 c -24.824,0 -44.953,16.517 -44.953,36.868 0,3.7743 0.70362,7.4274 1.9921,10.858 15.886,9.677 31.738,15.271 42.961,15.271 11.495,0 27.19,-5.4128 42.845,-14.841 1.391,-3.5531 2.1484,-7.3574 2.1484,-11.287 0,-20.354 -20.17,-36.87 -44.993,-36.87 z"
   id="path3210" /><g
   id="g3823"
   transform="translate(2.7523,9.633)"><path
     style="fill:#010101"
     inkscape:connector-curvature="0"
     id="path2412"
     d="m 102.85,169.37 c 2.293,3.974 6.5,5.839 9.396,4.167 2.897,-1.673 3.385,-6.249 1.091,-10.222 -2.292,-3.973 -6.5,-5.838 -9.396,-4.166 -2.896,1.672 -3.385,6.249 -1.091,10.221 z" /><path
     style="fill:#010101"
     inkscape:connector-curvature="0"
     id="path2398"
     d="m 135.58,169.37 c -2.292,3.974 -6.5,5.839 -9.396,4.167 -2.896,-1.673 -3.385,-6.249 -1.091,-10.222 2.293,-3.973 6.5,-5.838 9.396,-4.166 2.898,1.672 3.385,6.249 1.091,10.221 z" /></g><g
   id="g301">
		<g
   id="g303">
			<path
   id="path3159"
   stroke-linejoin="round"
   d="m168.03 100.74c0.003 12.519-10.144 22.669-22.663 22.669s-22.666-10.15-22.662-22.669c-0.004-12.52 10.144-22.67 22.662-22.67 12.519 0 22.666 10.15 22.663 22.67z"
   stroke="#010101"
   stroke-linecap="round"
   stroke-width="4"
   fill="#fff" />
			<path
   id="path3161"
   fill="#010101"
   d="m147.88 104.74c0.002 4.174-3.381 7.557-7.555 7.557-4.172 0-7.555-3.383-7.554-7.557-0.001-4.173 3.382-7.556 7.554-7.556 4.174 0 7.557 3.383 7.555 7.556z" />
		</g>
		<g
   id="g307">
			<path
   id="path3157"
   stroke-linejoin="round"
   d="m115.3 100.74c0.004 12.519-10.144 22.669-22.662 22.669-12.52 0-22.667-10.15-22.663-22.669-0.004-12.52 10.144-22.67 22.663-22.67 12.518 0 22.666 10.15 22.662 22.67z"
   stroke="#010101"
   stroke-linecap="round"
   stroke-width="4"
   fill="#fff" />
			<path
   id="path3163"
   fill="#010101"
   d="m105.85 104.74c0 4.174-3.382 7.557-7.555 7.557-4.174 0-7.556-3.383-7.555-7.557-0.001-4.173 3.381-7.556 7.555-7.556 4.173 0 7.555 3.383 7.555 7.556z" />
		</g>
	</g><g
   id="g311"
   stroke-linejoin="round"
   stroke="#010101"
   stroke-width="4"
   fill="#010101">
		<path
   id="path3216_1_"
   d="m62.431 54.958c-2.512-36.234-40.308-35.484-42.102-31.179s7.3035 43.735 42.102 31.179z" />
		<path
   id="path3218_1_"
   d="m177.39 55.079c2.511-36.234 37.268-36.092 39.061-31.787 1.794 4.305-4.2617 44.343-39.061 31.787z" />
	</g>
<metadata
   id="metadata3049"><rdf:RDF><cc:Work><dc:format>image/svg+xml</dc:format><dc:type
         rdf:resource="http://purl.org/dc/dcmitype/StillImage" /><cc:license
         rdf:resource="http://creativecommons.org/licenses/publicdomain/" /><dc:publisher><cc:Agent
           rdf:about="http://openclipart.org/"><dc:title>Openclipart</dc:title></cc:Agent></dc:publisher><dc:title>Cartoon Horse</dc:title><dc:date>2012-06-21T09:34:23</dc:date><dc:description>cartoon, clip art, clipart, funny, horse, </dc:description><dc:source>http://openclipart.org/detail/170851/cartoon-horse-by-paweo111-170851</dc:source><dc:creator><cc:Agent><dc:title>paweo111</dc:title></cc:Agent></dc:creator><dc:subject><rdf:Bag><rdf:li>cartoon</rdf:li><rdf:li>clip art</rdf:li><rdf:li>clipart</rdf:li><rdf:li>funny</rdf:li><rdf:li>horse</rdf:li></rdf:Bag></dc:subject></cc:Work><cc:License
       rdf:about="http://creativecommons.org/licenses/publicdomain/"><cc:permits
         rdf:resource="http://creativecommons.org/ns#Reproduction" /><cc:permits
         rdf:resource="http://creativecommons.org/ns#Distribution" /><cc:permits
         rdf:resource="http://creativecommons.org/ns#DerivativeWorks" /></cc:License></rdf:RDF></metadata></svg>